<svg width="121" height="87" viewBox="0 0 121 87" fill="none" xmlns="http://www.w3.org/2000/svg">
<path d="M60.5778 68.5556C70.9846 68.5556 79.421 60.3841 79.421 50.3041C79.421 40.224 70.9846 32.0525 60.5778 32.0525C50.171 32.0525 41.7346 40.224 41.7346 50.3041C41.7346 60.3841 50.171 68.5556 60.5778 68.5556Z" fill="#7C6969"/>
<path d="M115.99 14.3165H84.8548L83.9234 7.27958C83.9234 3.25931 80.5584 0 76.4079 0H44.3416C40.191 0 36.8261 3.25931 36.8261 7.27958L35.8947 14.3165H5.01035C2.24313 14.3165 0 16.3679 0 19.0482V81.6526C0 84.3329 2.24313 86.627 5.01035 86.627H115.99C118.757 86.627 121 84.3329 121 81.6526V19.0482C121 16.3679 118.757 14.3165 115.99 14.3165ZM60.5238 80.2117C43.5066 80.2117 29.7116 66.8498 29.7116 50.3671C29.7116 33.8842 43.5066 20.5223 60.5238 20.5223C77.541 20.5223 91.336 33.8842 91.336 50.3671C91.336 66.8496 77.541 80.2117 60.5238 80.2117ZM115.238 27.1771H88.9338V19.6549H115.238V27.1771Z" fill="#7C6969"/>
</svg>
