<svg width="163" height="112" viewBox="0 0 163 112" fill="none" xmlns="http://www.w3.org/2000/svg">
<path d="M81.2333 88.3404C95.1885 88.3404 106.502 77.8106 106.502 64.8215C106.502 51.8324 95.1885 41.3026 81.2333 41.3026C67.2781 41.3026 55.9651 51.8324 55.9651 64.8215C55.9651 77.8106 67.2781 88.3404 81.2333 88.3404Z" fill="#7C6969"/>
<path d="M155.539 18.4482H113.788L112.539 9.38042C112.539 4.19992 108.027 0 102.461 0H59.4609C53.8951 0 49.3828 4.19992 49.3828 9.38042L48.1338 18.4482H6.71875C3.00798 18.4482 0 21.0916 0 24.5454V105.217C0 108.671 3.00798 111.627 6.71875 111.627H155.539C159.25 111.627 162.258 108.671 162.258 105.217V24.5454C162.258 21.0916 159.25 18.4482 155.539 18.4482ZM81.1608 103.36C58.3413 103.36 39.8425 86.1422 39.8425 64.9028C39.8425 43.663 58.3413 26.445 81.1608 26.445C103.98 26.445 122.479 43.663 122.479 64.9028C122.479 86.1419 103.98 103.36 81.1608 103.36ZM154.531 35.0202H119.258V25.3271H154.531V35.0202Z" fill="#7C6969"/>
</svg>
