<svg width="63" height="45" viewBox="0 0 63 45" fill="none" xmlns="http://www.w3.org/2000/svg">
<path d="M31.5402 35.3173C36.9586 35.3173 41.3511 31.1076 41.3511 25.9147C41.3511 20.7219 36.9586 16.5122 31.5402 16.5122C26.1217 16.5122 21.7292 20.7219 21.7292 25.9147C21.7292 31.1076 26.1217 35.3173 31.5402 35.3173Z" fill="#7C6969"/>
<path d="M60.3913 7.37532H44.1806L43.6957 3.75016C43.6957 1.67907 41.9437 0 39.7826 0H23.087C20.9259 0 19.1739 1.67907 19.1739 3.75016L18.689 7.37532H2.6087C1.16791 7.37532 0 8.43212 0 9.81293V42.0643C0 43.4452 1.16791 44.627 2.6087 44.627H60.3913C61.8321 44.627 63 43.4452 63 42.0643V9.81293C63 8.43212 61.8321 7.37532 60.3913 7.37532ZM31.5124 41.3221C22.6522 41.3221 15.4697 34.4385 15.4697 25.9473C15.4697 17.4559 22.6522 10.5723 31.5124 10.5723C40.3726 10.5723 47.5551 17.4559 47.5551 25.9473C47.5551 34.4384 40.3726 41.3221 31.5124 41.3221ZM60 14.0006H46.3043V10.1254H60V14.0006Z" fill="#7C6969"/>
</svg>
